<svg width="109" height="109" viewBox="0 0 109 109" fill="none" xmlns="http://www.w3.org/2000/svg">
<g id="Frame" clip-path="url(#clip0_40_8)">
<path id="Vector" d="M70.75 100.74C65.66 102.53 60.19 103.5 54.5 103.5C27.44 103.5 5.5 81.56 5.5 54.5C5.5 27.44 27.44 5.5 54.5 5.5C81.56 5.5 103.5 27.44 103.5 54.5C103.5 60.46 102.43 66.18 100.48 71.46" stroke="#4A97D1" stroke-width="11" stroke-miterlimit="10" stroke-linecap="round" stroke-linejoin="round"/>
<g id="Group">
<path id="Vector_2" d="M53.23 80.5V73.98C49.49 73.92 45.61 72.75 43.35 71.14L44.9 66.81C47.22 68.36 50.58 69.59 54.2 69.59C58.78 69.59 61.88 66.94 61.88 63.26C61.88 59.71 59.36 57.51 54.58 55.58C48 52.99 43.93 50.02 43.93 44.41C43.93 39.05 47.74 34.98 53.68 34.01V27.49H57.68V33.75C61.55 33.88 64.2 34.91 66.07 36.01L64.46 40.27C63.1 39.49 60.46 38.08 56.32 38.08C51.35 38.08 49.48 41.05 49.48 43.63C49.48 46.99 51.87 48.67 57.49 50.99C64.14 53.7 67.5 57.06 67.5 62.81C67.5 67.91 63.95 72.69 57.3 73.79V80.51H53.23V80.5Z" fill="#4A97D1" stroke="#4896C4" stroke-width="4.6061" stroke-miterlimit="10"/>
</g>
<g id="Group_2">
<path id="Vector_3" d="M94.78 82.61V91.68H103.5V93.99H94.78V103.13H92.31V93.99H83.59V91.68H92.31V82.61H94.78Z" fill="#4A97D1" stroke="#4896C4" stroke-width="5" stroke-miterlimit="10"/>
</g>
</g>
<defs>
<clipPath id="clip0_40_8">
<rect width="109" height="109" fill="white"/>
</clipPath>
</defs>
</svg>
