<svg width="46" height="45" viewBox="0 0 46 45" fill="none" xmlns="http://www.w3.org/2000/svg">
<g id="Frame" clip-path="url(#clip0_5_115)">
<g id="Group">
<path id="Vector" d="M27.08 33.28C28.3 33 29.48 32.79 30.62 32.45C34.41 31.31 36.52 28.68 37.16 24.84C37.48 22.9 37.58 20.95 37 19.02C36.66 17.91 36.13 16.91 35.38 16.03C35.15 15.77 35.1 15.55 35.2 15.21C35.75 13.41 35.57 11.63 34.94 9.88004C34.88 9.71004 34.57 9.48004 34.4 9.51004C33.64 9.62004 32.83 9.69004 32.13 9.99004C31.02 10.46 29.98 11.11 28.9 11.65C28.67 11.77 28.35 11.84 28.11 11.78C24.59 10.94 21.08 10.94 17.56 11.77C17.3 11.83 16.95 11.77 16.72 11.63C15.2 10.7 13.67 9.81004 11.87 9.53004C10.9 9.38004 10.79 9.43004 10.53 10.36C10.05 12.01 9.96999 13.67 10.47 15.34C10.52 15.5 10.48 15.75 10.38 15.87C8.32999 18.31 7.97999 21.14 8.37999 24.17C8.63999 26.1 9.18999 27.92 10.43 29.47C11.99 31.44 14.13 32.37 16.51 32.87C17.17 33.01 17.85 33.1 18.58 33.23C17.82 34.06 17.43 35 17.23 36.03C17.2 36.18 17.02 36.35 16.86 36.42C14.33 37.51 12.05 36.78 10.58 34.42C9.81999 33.2 8.81999 32.31 7.35999 32.05C7.09999 32 6.79999 32.02 6.51999 32.08C5.93999 32.2 5.85999 32.51 6.28999 32.94C6.43999 33.09 6.60999 33.24 6.78999 33.35C7.93999 34.02 8.75999 35.02 9.15999 36.23C10.04 38.89 12.65 40.04 15.44 39.77C15.98 39.72 16.51 39.64 17.13 39.56C17.13 41.05 17.17 42.5 17.11 43.94C17.08 44.75 16.32 45.12 15.43 44.82C13.45 44.15 11.57 43.23 9.87999 42C3.12999 37.11 -0.22001 30.44 0.00998974 22.1C0.30999 11.37 8.26999 2.26004 18.82 0.360039C31.09 -1.84996 42.89 6.32004 45.24 18.66C47.38 29.89 41.06 40.99 30.38 44.77C29.1 45.22 28.47 44.77 28.48 43.41C28.49 41.51 28.5 39.6 28.51 37.7C28.52 36.06 28.26 34.51 27.08 33.28Z" fill="white"/>
</g>
</g>
<defs>
<clipPath id="clip0_5_115">
<rect width="45.65" height="44.93" fill="white"/>
</clipPath>
</defs>
</svg>
