<svg width="45" height="45" viewBox="0 0 45 45" fill="none" xmlns="http://www.w3.org/2000/svg">
<g id="Frame" clip-path="url(#clip0_5_109)">
<g id="Group">
<path id="Vector" d="M44.1 22.15C44.1 27.72 44.1 33.3 44.1 38.87C44.1 42.17 42.17 44.11 38.85 44.11C27.62 44.11 16.38 44.11 5.15 44.11C1.97 44.11 0 42.14 0 38.96C0 27.72 0 16.48 0 5.24C0 1.93 1.93 0 5.25 0C16.48 0 27.72 0 38.95 0C42.14 0 44.1 1.97 44.1 5.15C44.11 10.82 44.1 16.49 44.1 22.15ZM24.51 35.25C24.51 34.87 24.51 34.55 24.51 34.22C24.51 31.4 24.49 28.59 24.53 25.77C24.54 24.99 24.64 24.17 24.88 23.43C25.38 21.92 26.74 21.18 28.45 21.34C29.81 21.47 30.75 22.39 31.02 23.93C31.13 24.56 31.17 25.21 31.18 25.85C31.2 28.67 31.19 31.48 31.19 34.3C31.19 34.62 31.22 34.94 31.24 35.25C33.18 35.25 35.01 35.25 36.88 35.25C36.9 34.93 36.93 34.67 36.93 34.4C36.93 30.76 36.94 27.11 36.92 23.47C36.92 22.74 36.85 22 36.71 21.28C36.23 18.92 34.96 17.14 32.58 16.45C29.6 15.58 26.94 16.12 24.87 18.62C24.81 18.7 24.72 18.76 24.49 18.97C24.49 18.1 24.49 17.41 24.49 16.73C22.6 16.73 20.82 16.73 19.03 16.73C19.03 22.95 19.03 29.09 19.03 35.25C20.87 35.25 22.63 35.25 24.51 35.25ZM15.21 35.26C15.21 29.02 15.21 22.86 15.21 16.72C13.28 16.72 11.44 16.72 9.59 16.72C9.59 22.94 9.59 29.08 9.59 35.26C11.48 35.26 13.31 35.26 15.21 35.26ZM12.38 7.33C10.47 7.33 8.97 8.86 8.97 10.78C8.98 12.66 10.46 14.16 12.33 14.19C14.23 14.21 15.77 12.69 15.79 10.78C15.82 8.88 14.29 7.33 12.38 7.33Z" fill="white"/>
</g>
</g>
<defs>
<clipPath id="clip0_5_109">
<rect width="44.1" height="44.11" fill="white"/>
</clipPath>
</defs>
</svg>
