<svg width="109" height="109" viewBox="0 0 109 109" fill="none" xmlns="http://www.w3.org/2000/svg">
<g id="Frame" clip-path="url(#clip0_40_28)">
<path id="Vector" d="M70.75 100.74C65.66 102.53 60.19 103.5 54.5 103.5C27.44 103.5 5.5 81.56 5.5 54.5C5.5 27.44 27.44 5.5 54.5 5.5C81.56 5.5 103.5 27.44 103.5 54.5C103.5 60.46 102.43 66.18 100.48 71.46" stroke="#4A97D1" stroke-width="11" stroke-miterlimit="10" stroke-linecap="round" stroke-linejoin="round"/>
<g id="Group">
<path id="Vector_2" d="M51.23 81.5V74.98C47.49 74.92 43.61 73.75 41.35 72.14L42.9 67.81C45.22 69.36 48.58 70.59 52.2 70.59C56.78 70.59 59.88 67.94 59.88 64.26C59.88 60.71 57.36 58.51 52.58 56.58C46 53.99 41.93 51.02 41.93 45.41C41.93 40.05 45.74 35.98 51.68 35.01V28.49H55.68V34.75C59.55 34.88 62.2 35.91 64.07 37.01L62.46 41.27C61.1 40.49 58.46 39.08 54.32 39.08C49.35 39.08 47.48 42.05 47.48 44.63C47.48 47.99 49.87 49.67 55.49 51.99C62.14 54.7 65.5 58.06 65.5 63.81C65.5 68.91 61.95 73.69 55.3 74.79V81.51H51.23V81.5Z" fill="#4A97D1" stroke="#4896C4" stroke-width="4.6061" stroke-miterlimit="10"/>
</g>
<path id="Vector_3" d="M83.56 99.5L93.13 82.66H94.53L84.96 99.5H83.56Z" fill="#4A97D1" stroke="#4896C4" stroke-width="3.9562" stroke-miterlimit="10"/>
<path id="Vector_4" d="M96.7 99.0701C98.2961 99.0701 99.59 97.221 99.59 94.9401C99.59 92.6591 98.2961 90.8101 96.7 90.8101C95.1039 90.8101 93.81 92.6591 93.81 94.9401C93.81 97.221 95.1039 99.0701 96.7 99.0701Z" stroke="#4896C4" stroke-width="3" stroke-miterlimit="10"/>
<path id="Vector_5" d="M82.39 90.26C83.9861 90.26 85.28 88.4109 85.28 86.13C85.28 83.8491 83.9861 82 82.39 82C80.7939 82 79.5 83.8491 79.5 86.13C79.5 88.4109 80.7939 90.26 82.39 90.26Z" stroke="#4896C4" stroke-width="3" stroke-miterlimit="10"/>
</g>
<defs>
<clipPath id="clip0_40_28">
<rect width="109" height="109" fill="white"/>
</clipPath>
</defs>
</svg>
