<svg width="44" height="42" viewBox="0 0 44 42" fill="none" xmlns="http://www.w3.org/2000/svg">
<g id="Frame" clip-path="url(#clip0_5_112)">
<g id="Group">
<path id="Vector" d="M41.89 0.15C41.38 0.71 40.93 1.22 40.46 1.73C36.36 6.12 32.27 10.5 28.17 14.88C27.47 15.62 26.79 16.38 26.08 17.11C25.78 17.41 25.73 17.65 26.01 18.02C28.21 20.93 30.38 23.85 32.56 26.76C34.89 29.87 37.22 32.98 39.55 36.09C40.67 37.59 41.79 39.08 42.9 40.58C43.01 40.72 43.06 40.9 43.13 41.07C42.94 41.12 42.75 41.22 42.57 41.22C38.83 41.23 35.09 41.22 31.36 41.23C30.92 41.23 30.63 41.1 30.36 40.74C27.44 36.8 24.5 32.87 21.57 28.94C20.72 27.81 19.86 26.69 19.02 25.55C18.74 25.17 18.55 25.12 18.2 25.5C15.18 28.75 12.15 31.98 9.12 35.22C7.34 37.12 5.56 39.02 3.78 40.92C3.67 41.04 3.51 41.19 3.37 41.19C2.3 41.21 1.24 41.2 0.04 41.2C0.18 40.98 0.25 40.83 0.35 40.72C4.86 35.9 9.38 31.08 13.9 26.26C14.82 25.28 15.72 24.29 16.64 23.32C16.94 23.01 16.92 22.79 16.67 22.45C13.07 17.68 9.5 12.91 5.93 8.13C4.05 5.61 2.16 3.08 0.27 0.56C0.19 0.44 0.12 0.31 0 0.09C0.26 0.06 0.45 0.01 0.64 0.01C4.38 0.01 8.12 0.02 11.85 0C12.34 0 12.65 0.16 12.94 0.55C16.49 5.31 20.06 10.07 23.63 14.82C24.02 15.34 24.06 15.35 24.52 14.87C27.72 11.46 30.92 8.04 34.11 4.62C35.44 3.2 36.76 1.78 38.1 0.37C38.26 0.21 38.5 0.04 38.71 0.03C39.65 0 40.6 0.02 41.54 0.02C41.62 0.02 41.71 0.08 41.89 0.15ZM5.32 2.72C5.54 3.06 5.66 3.24 5.79 3.42C8.14 6.56 10.5 9.7 12.86 12.83C15.88 16.86 18.9 20.89 21.92 24.92C25.18 29.27 28.45 33.61 31.7 37.96C31.96 38.31 32.25 38.47 32.69 38.47C34.26 38.46 35.82 38.47 37.39 38.46C37.57 38.46 37.74 38.42 38.02 38.39C37.86 38.15 37.77 37.99 37.66 37.84C35.84 35.41 34.03 32.97 32.21 30.54C29.37 26.75 26.52 22.97 23.68 19.18C19.69 13.89 15.7 8.58 11.73 3.26C11.44 2.87 11.13 2.7 10.64 2.71C9.23 2.74 7.81 2.72 6.39 2.72C6.1 2.72 5.8 2.72 5.32 2.72Z" fill="white"/>
</g>
</g>
<defs>
<clipPath id="clip0_5_112">
<rect width="43.12" height="41.23" fill="white"/>
</clipPath>
</defs>
</svg>
