<svg width="45" height="45" viewBox="0 0 45 45" fill="none" xmlns="http://www.w3.org/2000/svg">
<g id="Frame" clip-path="url(#clip0_2_17)">
<g id="Group">
<g id="Group_2">
<path id="Vector" d="M44.19 22.15C44.16 34.49 34.22 44.23 21.7 44.18C9.80003 44.13 -0.0599717 34.07 2.82551e-05 22.04C0.0600283 9.92 9.97003 -0.0499959 21.92 4.14268e-06C34.34 0.0500041 44.23 9.88 44.19 22.15ZM33.15 12.73C33.45 15.34 33.74 17.92 34.06 20.5C34.08 20.68 34.37 20.96 34.54 20.96C36.95 20.99 39.36 20.98 41.88 20.98C41.61 17.02 40.39 13.59 38.18 10.56C36.41 11.32 34.74 12.04 33.15 12.73ZM38.21 33.65C40.38 30.57 41.66 27.17 41.87 23.31C39.21 23.31 36.69 23.31 34.22 23.31C33.84 26.07 33.47 28.76 33.11 31.45C34.76 32.16 36.43 32.88 38.21 33.65ZM5.99003 10.53C3.79003 13.65 2.53003 17.04 2.32003 20.98C4.65003 20.98 6.88003 21 9.11003 20.95C9.31003 20.95 9.66003 20.58 9.69003 20.35C10.03 17.77 10.32 15.19 10.62 12.58C9.18003 11.94 7.65003 11.26 5.99003 10.53ZM10.63 31.61C10.32 28.97 10.03 26.39 9.70003 23.81C9.67003 23.6 9.37003 23.27 9.19003 23.26C6.93003 23.22 4.67003 23.24 2.32003 23.24C2.55003 27.18 3.80003 30.57 6.00003 33.66C7.63003 32.93 9.18003 32.25 10.63 31.61ZM11.81 20.88C14.99 20.88 17.84 20.88 20.67 20.88C20.67 18.63 20.67 16.48 20.67 14.38C18.09 14.03 15.58 13.69 12.85 13.32C12.51 15.8 12.17 18.29 11.81 20.88ZM31.95 20.93C31.59 18.32 31.25 15.86 30.92 13.42C28.14 13.76 25.61 14.08 23.08 14.39C23.08 16.59 23.08 18.73 23.08 20.93C25.98 20.93 28.8 20.93 31.95 20.93ZM20.67 29.81C20.67 27.66 20.67 25.49 20.67 23.32C17.74 23.32 14.89 23.32 11.81 23.32C12.18 25.93 12.52 28.41 12.87 30.86C15.61 30.5 18.11 30.16 20.67 29.81ZM30.92 30.77C31.25 28.33 31.59 25.85 31.93 23.3C28.8 23.3 25.96 23.3 23.09 23.3C23.09 25.54 23.09 27.7 23.09 29.81C25.68 30.13 28.18 30.44 30.92 30.77ZM30.02 11.27C29.03 7.03 25.63 2.88 23.09 2.59C23.09 5.71 23.09 8.82 23.09 12.12C25.44 11.83 27.69 11.55 30.02 11.27ZM23.09 32.08C23.09 35.45 23.09 38.54 23.09 41.65C25.91 40.99 29.57 36.35 29.93 32.9C27.69 32.64 25.45 32.37 23.09 32.08ZM20.7 2.5C17.78 3.28 14.27 7.72 13.84 11.19C16.1 11.48 18.36 11.78 20.7 12.08C20.7 8.75 20.7 5.66 20.7 2.5ZM20.66 41.81C20.66 38.49 20.66 35.39 20.66 32.08C18.28 32.41 16.03 32.72 13.62 33.05C15.16 36.83 16.72 40.2 20.66 41.81ZM32.55 10.53C33.83 9.98 35.22 9.38 36.74 8.73C34.33 6.2 31.73 4.46 28.74 3.43C29.99 5.75 31.23 8.07 32.55 10.53ZM32.54 33.68C31.23 36.13 29.99 38.43 28.74 40.78C31.78 39.69 34.41 37.97 36.74 35.43C35.2 34.79 33.81 34.22 32.54 33.68ZM7.44003 35.45C9.66003 37.81 12.06 39.47 14.86 40.55C13.66 38.3 12.49 36.09 11.27 33.79C10.1 34.3 8.88003 34.83 7.44003 35.45ZM14.87 3.64C12.07 4.73 9.66003 6.38 7.46003 8.74C8.86003 9.34 10.13 9.89 11.29 10.38C12.54 8.03 13.69 5.86 14.87 3.64Z" fill="#7A067A"/>
</g>
</g>
</g>
<defs>
<clipPath id="clip0_2_17">
<rect width="44.19" height="44.18" fill="white"/>
</clipPath>
</defs>
</svg>
